<?xml version="1.0" standalone="no"?>
<!DOCTYPE svg PUBLIC "-//W3C//DTD SVG 20010904//EN"
 "http://www.w3.org/TR/2001/REC-SVG-20010904/DTD/svg10.dtd">
<svg version="1.0" xmlns="http://www.w3.org/2000/svg"
 width="1280.000000pt" height="753.000000pt" viewBox="0 0 1280.000000 753.000000"
 preserveAspectRatio="xMidYMid meet">

<g transform="translate(0.000000,753.000000) scale(0.100000,-0.100000)"
fill="#000000" stroke="none">
<path d="M3530 7523 c-489 -29 -1000 -167 -1450 -392 -370 -186 -677 -408
-975 -706 -617 -616 -989 -1397 -1087 -2280 -17 -156 -17 -604 0 -760 98 -885
468 -1662 1087 -2280 163 -163 334 -308 505 -427 1312 -914 3059 -901 4355 33
115 83 230 177 359 293 l76 68 76 -68 c290 -262 549 -441 874 -604 886 -445
1909 -521 2853 -214 1238 404 2190 1434 2492 2697 75 314 100 534 100 882 0
348 -25 568 -100 882 -212 887 -754 1679 -1510 2208 -950 665 -2187 852 -3290
498 -526 -168 -987 -437 -1419 -827 l-76 -68 -76 68 c-286 258 -530 428 -844
588 -612 312 -1267 449 -1950 409z m420 -293 c826 -49 1571 -367 2180 -928 51
-47 63 -63 55 -75 -5 -8 -44 -57 -86 -109 -175 -216 -327 -458 -449 -713 -42
-88 -82 -172 -88 -187 l-12 -28 159 0 159 0 80 154 c98 189 193 340 322 511
131 175 124 170 171 115 130 -151 319 -441 430 -662 l59 -118 160 0 159 0 -22
53 c-42 103 -194 394 -269 514 -81 130 -219 321 -300 414 -26 31 -48 61 -48
67 0 12 155 151 273 246 1001 797 2374 975 3545 460 1094 -481 1870 -1500
2041 -2679 132 -906 -100 -1830 -644 -2561 -592 -796 -1472 -1295 -2460 -1395
-173 -17 -521 -15 -700 5 -652 72 -1274 328 -1783 733 -115 92 -272 232 -272
243 0 5 41 60 91 122 206 257 418 611 533 891 l15 37 -162 0 -162 -1 -45 -96
c-90 -194 -304 -526 -439 -683 -48 -55 -40 -60 -171 115 -129 171 -224 322
-322 511 l-80 154 -159 0 -159 0 12 -27 c6 -16 46 -100 88 -188 122 -255 274
-497 449 -713 42 -52 81 -101 86 -109 8 -12 -4 -28 -55 -75 -178 -164 -393
-326 -592 -444 -545 -324 -1135 -486 -1768 -487 -237 0 -382 12 -597 49 -1136
194 -2112 957 -2584 2019 -386 872 -393 1877 -17 2760 241 567 628 1054 1138
1435 523 390 1183 630 1840 669 196 12 219 12 400 1z"/>
<path d="M3430 5233 c-61 -23 -109 -95 -110 -162 0 -55 36 -118 84 -146 101
-59 226 -8 256 105 19 72 -21 160 -91 195 -27 15 -109 19 -139 8z"/>
<path d="M3955 5221 c-73 -45 -107 -121 -86 -191 41 -139 203 -175 298 -67 97
111 16 277 -134 277 -29 0 -60 -7 -78 -19z"/>
<path d="M3645 4689 c-358 -48 -662 -303 -769 -648 -152 -485 114 -999 599
-1160 328 -108 686 -26 938 218 270 260 355 670 212 1022 -110 272 -375 493
-663 554 -93 19 -232 26 -317 14z m305 -328 c192 -61 351 -221 413 -416 31
-99 31 -261 0 -360 -31 -96 -86 -188 -158 -260 -344 -343 -924 -181 -1045 291
-71 276 66 577 321 703 46 23 113 48 149 56 86 20 234 13 320 -14z"/>
<path d="M1260 3765 l0 -895 160 0 160 0 2 391 3 392 396 -392 397 -391 203 0
204 0 -448 447 -447 448 447 447 448 448 -205 0 -205 0 -397 -397 -398 -398 0
398 0 397 -160 0 -160 0 0 -895z"/>
<path d="M5060 3766 l0 -896 160 0 160 0 0 320 0 320 193 0 192 0 190 -320
189 -320 183 0 c101 0 183 2 183 4 0 3 -101 164 -224 360 l-224 355 52 30
c121 68 216 187 258 324 29 98 22 254 -16 347 -53 129 -154 236 -281 296 -140
67 -148 68 -602 72 l-413 3 0 -895z m810 599 c131 -39 204 -136 204 -270 0
-127 -70 -228 -193 -277 -51 -20 -76 -23 -278 -26 l-223 -3 0 302 0 302 218
-6 c159 -4 232 -10 272 -22z"/>
<path d="M6890 3764 l0 -895 463 3 462 3 85 31 c194 69 297 179 335 359 28
132 12 267 -42 367 -15 27 -54 75 -88 107 l-61 57 56 54 c71 69 107 141 122
246 14 99 -4 211 -49 300 -38 76 -125 157 -215 199 -128 61 -164 65 -640 65
l-428 0 0 -896z m882 596 c48 -17 104 -63 125 -103 11 -20 17 -56 17 -98 0
-94 -35 -152 -119 -194 l-60 -30 -267 -3 -268 -4 0 227 0 227 268 -5 c182 -3
279 -8 304 -17z m-53 -730 c78 -13 128 -38 169 -85 39 -43 47 -71 47 -155 -1
-103 -51 -172 -150 -209 -51 -19 -77 -21 -320 -21 l-265 0 0 240 0 240 228 0
c125 0 256 -5 291 -10z"/>
<path d="M8680 3765 l0 -895 595 0 595 0 0 150 0 150 -445 0 -445 0 2 223 3
222 368 3 367 2 0 150 0 150 -370 0 -370 0 0 220 0 220 445 0 445 0 0 150 0
150 -595 0 -595 0 0 -895z"/>
<path d="M10290 3765 l0 -895 155 0 155 0 0 320 0 320 193 0 193 0 189 -320
190 -320 183 0 c100 0 182 2 182 5 0 3 -99 163 -220 356 -121 192 -220 353
-220 357 0 4 28 23 61 42 34 19 87 62 119 97 158 169 191 407 84 613 -87 167
-247 276 -454 309 -37 6 -226 11 -437 11 l-373 0 0 -895z m718 615 c138 -18
212 -61 260 -154 22 -43 26 -64 26 -131 0 -67 -4 -88 -26 -131 -28 -54 -77
-103 -131 -130 -69 -36 -128 -44 -334 -44 l-203 0 0 300 0 300 163 0 c89 0
199 -5 245 -10z"/>
</g>
</svg>
